/* XPM */
static char * aidp32_xpm[] = {
"32 32 505 2",
"  	c None",
". 	c #F1DB7A",
"+ 	c #EBD576",
"@ 	c #E7D274",
"# 	c #E8D174",
"$ 	c #EDD574",
"% 	c #F5DC78",
"& 	c #FAE07A",
"* 	c #E8CA6D",
"= 	c #C5AC5C",
"- 	c #82713B",
"; 	c #463C1C",
"> 	c #2C240D",
", 	c #231C09",
"' 	c #231C08",
") 	c #231B08",
"! 	c #32280E",
"~ 	c #51411A",
"{ 	c #997D37",
"] 	c #DAAF4F",
"^ 	c #F0BF54",
"/ 	c #E2BB5E",
"( 	c #A58740",
"_ 	c #413313",
": 	c #0F0A01",
"< 	c #040300",
"[ 	c #150F01",
"} 	c #554215",
"| 	c #CBA343",
"1 	c #F0C756",
"2 	c #DDB04F",
"3 	c #C0953F",
"4 	c #4F3A12",
"5 	c #0E0801",
"6 	c #181303",
"7 	c #7C692C",
"8 	c #F2CA59",
"9 	c #D4A849",
"0 	c #A37E30",
"a 	c #271B04",
"b 	c #42320B",
"c 	c #DAA637",
"d 	c #D2AE51",
"e 	c #A2843A",
"f 	c #1B1403",
"g 	c #2F1E02",
"h 	c #CE8D22",
"i 	c #B9A04E",
"j 	c #221C07",
"k 	c #493F1E",
"l 	c #272009",
"m 	c #433116",
"n 	c #332204",
"o 	c #3C2A05",
"p 	c #E0A62F",
"q 	c #D1BA60",
"r 	c #473E1B",
"s 	c #070709",
"t 	c #BCA694",
"u 	c #B08D3B",
"v 	c #211803",
"w 	c #504144",
"x 	c #C28F66",
"y 	c #67460D",
"z 	c #7A6322",
"A 	c #F7CC52",
"B 	c #8C7B3C",
"C 	c #060606",
"D 	c #B5A0AE",
"E 	c #E5A947",
"F 	c #A17225",
"G 	c #1E1201",
"H 	c #4D4044",
"I 	c #C8A08B",
"J 	c #DFAA49",
"K 	c #654D14",
"L 	c #100C02",
"M 	c #D6BF64",
"N 	c #CBAC4E",
"O 	c #271F07",
"P 	c #171002",
"Q 	c #2D210A",
"R 	c #54402C",
"S 	c #90705B",
"T 	c #AB7D4F",
"U 	c #7B5B44",
"V 	c #C09A97",
"W 	c #DDA143",
"X 	c #9F772A",
"Y 	c #544845",
"Z 	c #D4B492",
"` 	c #F1C45C",
" .	c #A68840",
"..	c #AB9472",
"+.	c #BDA05C",
"@.	c #8A7439",
"#.	c #4D4018",
"$.	c #2A230A",
"%.	c #0F0C02",
"&.	c #564D27",
"*.	c #FCE47F",
"=.	c #C49D3D",
"-.	c #957429",
";.	c #171003",
">.	c #342711",
",.	c #664F3D",
"'.	c #9D7B67",
").	c #BC917A",
"!.	c #CD9973",
"~.	c #D89B52",
"{.	c #DEA13F",
"].	c #E2AA41",
"^.	c #DDAC4E",
"/.	c #866E4B",
"(.	c #D1B79C",
"_.	c #F3C85C",
":.	c #E7C27F",
"<.	c #F1C65B",
"[.	c #A4843D",
"}.	c #B29D93",
"|.	c #E6BC61",
"1.	c #EAC155",
"2.	c #ECC85E",
"3.	c #ECCD6E",
"4.	c #DFC57B",
"5.	c #C7B170",
"6.	c #9B894F",
"7.	c #5E5227",
"8.	c #332B10",
"9.	c #181404",
"0.	c #E4C458",
"a.	c #BE892B",
"b.	c #897071",
"c.	c #C0947D",
"d.	c #D09B6F",
"e.	c #DB9E4B",
"f.	c #DFA43F",
"g.	c #E2AC47",
"h.	c #E2B35C",
"i.	c #D7B068",
"j.	c #BC9C5C",
"k.	c #B29C87",
"l.	c #EAC47A",
"m.	c #E5BA56",
"n.	c #9C8576",
"o.	c #DCB071",
"p.	c #E0A82F",
"q.	c #BD8E3D",
"r.	c #A58D8F",
"s.	c #D7A753",
"t.	c #C69F54",
"u.	c #9B8462",
"v.	c #C3A980",
"w.	c #DFC187",
"x.	c #F2CF76",
"y.	c #FAD366",
"z.	c #FBD464",
"A.	c #F9D169",
"B.	c #EBC573",
"C.	c #C9A65C",
"D.	c #A48433",
"E.	c #B48527",
"F.	c #716E89",
"G.	c #D8B17F",
"H.	c #E3B964",
"I.	c #D4AF67",
"J.	c #B39552",
"K.	c #7E662C",
"L.	c #443611",
"M.	c #392D16",
"N.	c #7C6757",
"O.	c #9B763A",
"P.	c #917E87",
"Q.	c #CD9B69",
"R.	c #CC9344",
"S.	c #CA9036",
"T.	c #C39672",
"U.	c #D5A03C",
"V.	c #DFAD48",
"W.	c #CDA550",
"X.	c #867356",
"Y.	c #B09353",
"Z.	c #655321",
"`.	c #362C0F",
" +	c #4F4125",
".+	c #907957",
"++	c #BFA178",
"@+	c #DAB580",
"#+	c #E9BC6D",
"$+	c #C1994C",
"%+	c #483710",
"&+	c #ECB844",
"*+	c #B29438",
"=+	c #100C04",
"-+	c #463817",
";+	c #392C0B",
">+	c #1C1402",
",+	c #160F03",
"'+	c #4A3B32",
")+	c #9E8179",
"!+	c #C5997F",
"~+	c #D19745",
"{+	c #D2962E",
"]+	c #AD7D30",
"^+	c #8F7D86",
"/+	c #D5A86B",
"(+	c #DFB04A",
"_+	c #BCA28F",
":+	c #F2C55D",
"<+	c #DAB458",
"[+	c #8F7C67",
"}+	c #E8C387",
"|+	c #F7C857",
"1+	c #EFC260",
"2+	c #D1A963",
"3+	c #8A6D33",
"4+	c #382A0A",
"5+	c #0E0A01",
"6+	c #211805",
"7+	c #3C2F14",
"8+	c #2C2208",
"9+	c #171203",
"0+	c #EDC95F",
"a+	c #B69339",
"b+	c #9B7B2B",
"c+	c #100C09",
"d+	c #735F5D",
"e+	c #B79688",
"f+	c #D3A26A",
"g+	c #DDA63D",
"h+	c #DFAC49",
"i+	c #D0A55D",
"j+	c #CBAE92",
"k+	c #F0C358",
"l+	c #C8A34A",
"m+	c #A2938F",
"n+	c #F1C773",
"o+	c #F0C466",
"p+	c #CEA759",
"q+	c #8B7665",
"r+	c #DEB783",
"s+	c #E5B75A",
"t+	c #BE9D76",
"u+	c #DAB581",
"v+	c #EBC15F",
"w+	c #ECC761",
"x+	c #E2C274",
"y+	c #B39D5E",
"z+	c #564B21",
"A+	c #100D02",
"B+	c #EAD270",
"C+	c #B59237",
"D+	c #907227",
"E+	c #414153",
"F+	c #D0B39D",
"G+	c #F1C251",
"H+	c #EAC061",
"I+	c #C29F52",
"J+	c #735C27",
"K+	c #7B6854",
"L+	c #917641",
"M+	c #C3ABA1",
"N+	c #EBBB5B",
"O+	c #C7A584",
"P+	c #E7B865",
"Q+	c #EAB851",
"R+	c #E0B360",
"S+	c #DDB77D",
"T+	c #E5BC5E",
"U+	c #8F7944",
"V+	c #9F8A56",
"W+	c #594D29",
"X+	c #8D8267",
"Y+	c #D3C397",
"Z+	c #F1DC8D",
"`+	c #F9E280",
" @	c #A99753",
".@	c #E2C666",
"+@	c #BD9C3F",
"@@	c #997C30",
"#@	c #040402",
"$@	c #6C5D55",
"%@	c #957534",
"&@	c #42320D",
"*@	c #1F1811",
"=@	c #9D8B91",
"-@	c #E1B576",
";@	c #E6B651",
">@	c #9B7C43",
",@	c #BFA596",
"'@	c #E7BD65",
")@	c #E5BC58",
"!@	c #BCA898",
"~@	c #F1CE68",
"{@	c #F0D170",
"]@	c #A89456",
"^@	c #D2C2A4",
"/@	c #F9DE79",
"(@	c #E2CA79",
"_@	c #6A5C2C",
":@	c #1E1908",
"<@	c #5A4F36",
"[@	c #97824C",
"}@	c #372D0E",
"|@	c #DAB048",
"1@	c #B3872E",
"2@	c #997326",
"3@	c #332D2D",
"4@	c #BAA7A2",
"5@	c #EEC669",
"6@	c #EDC565",
"7@	c #E3C487",
"8@	c #F2CD68",
"9@	c #F2CF70",
"0@	c #EECE79",
"a@	c #F6D46E",
"b@	c #F1D27C",
"c@	c #F2D271",
"d@	c #E0C690",
"e@	c #F2D077",
"f@	c #F5D06C",
"g@	c #DFC084",
"h@	c #F2C96B",
"i@	c #E8BF67",
"j@	c #886D2E",
"k@	c #160F02",
"l@	c #DCAF44",
"m@	c #B08F35",
"n@	c #0F0B01",
"o@	c #B2AAB3",
"p@	c #F7D367",
"q@	c #E5C361",
"r@	c #735F27",
"s@	c #6A6364",
"t@	c #E1C596",
"u@	c #F9D060",
"v@	c #AD914C",
"w@	c #C9B4A0",
"x@	c #EDC666",
"y@	c #9A7F49",
"z@	c #D3B79D",
"A@	c #F0C254",
"B@	c #B48F40",
"C@	c #30240E",
"D@	c #9D867E",
"E@	c #DCAE71",
"F@	c #DBA956",
"G@	c #574115",
"H@	c #161003",
"I@	c #E5BF59",
"J@	c #C7A745",
"K@	c #1D1704",
"L@	c #5E575B",
"M@	c #B19249",
"N@	c #4B3C13",
"O@	c #6F6467",
"P@	c #DDB98E",
"Q@	c #EBBC5A",
"R@	c #957639",
"S@	c #705A3C",
"T@	c #C2A59B",
"U@	c #E2AC4F",
"V@	c #AE813B",
"W@	c #2E1F05",
"X@	c #0D0801",
"Y@	c #695650",
"Z@	c #906D3A",
"`@	c #1D1403",
" #	c #392D0F",
".#	c #E9C25B",
"+#	c #CBA13D",
"@#	c #4E3C12",
"##	c #0E0901",
"$#	c #A08478",
"%#	c #9E7C60",
"&#	c #CBA185",
"*#	c #D1984D",
"=#	c #BB9285",
"-#	c #CB8C40",
";#	c #A37142",
">#	c #A07866",
",#	c #5A3C0D",
"'#	c #8B6A26",
")#	c #B78427",
"!#	c #8C651C",
"~#	c #A68EAA",
"{#	c #BD7C40",
"]#	c #88625C",
"^#	c #B5867F",
"/#	c #C48231",
"(#	c #A27040",
"_#	c #AC8D95",
":#	c #D09644",
"<#	c #664711",
"[#	c #CD9730",
"}#	c #A76E1C",
"|#	c #1F1101",
"1#	c #685B73",
"2#	c #BA8977",
"3#	c #C58A43",
"4#	c #916D53",
"5#	c #9C7347",
"6#	c #B59797",
"7#	c #DFA64D",
"8#	c #BA8C3E",
"9#	c #352506",
"0#	c #4D360B",
"a#	c #E1A532",
"b#	c #955912",
"c#	c #633A08",
"d#	c #9A7E7A",
"e#	c #A6836A",
"f#	c #D6AA7B",
"g#	c #E0AA53",
"h#	c #C7A38E",
"i#	c #E8B151",
"j#	c #C69A51",
"k#	c #BB966B",
"l#	c #694E16",
"m#	c #0F0901",
"n#	c #C89A36",
"o#	c #9D6518",
"p#	c #341F03",
"q#	c #BAA6AD",
"r#	c #E5B453",
"s#	c #AF906D",
"t#	c #E0B77E",
"u#	c #F1BD4A",
"v#	c #CCA254",
"w#	c #C6AA99",
"x#	c #EDBC56",
"y#	c #71581D",
"z#	c #786328",
"A#	c #F2C858",
"B#	c #A47925",
"C#	c #1D1402",
"D#	c #72676D",
"E#	c #E1B983",
"F#	c #ECBD58",
"G#	c #B19367",
"H#	c #BF9C59",
"I#	c #C9AF9B",
"J#	c #F4C65D",
"K#	c #C6A149",
"L#	c #312709",
"M#	c #443A18",
"N#	c #F3D66C",
"O#	c #D1A53C",
"P#	c #A27E2B",
"Q#	c #040301",
"R#	c #786B6C",
"S#	c #E6BF83",
"T#	c #F0C360",
"U#	c #D6B993",
"V#	c #F7CC63",
"W#	c #CBAA4E",
"X#	c #382E0D",
"Y#	c #362F13",
"Z#	c #EBD26E",
"`#	c #CD942D",
" $	c #A07321",
".$	c #271A03",
"+$	c #7D6F6D",
"@$	c #E9C586",
"#$	c #FBD15C",
"$$	c #CEAD52",
"%$	c #3B310F",
"&$	c #463F1E",
"*$	c #EAD573",
"=$	c #C58923",
"-$	c #B17B1F",
";$	c #4D3509",
">$	c #0E0800",
",$	c #7B6D61",
"'$	c #BA9C4A",
")$	c #3E330F",
"!$	c #181405",
"~$	c #7D6F39",
"{$	c #F3DB77",
"]$	c #C98E2B",
"^$	c #956B1F",
"/$	c #3E2C07",
"($	c #171102",
"_$	c #59481A",
":$	c #D2AD4B",
"<$	c #F4CA5A",
"[$	c #C99027",
"}$	c #AB7B21",
"|$	c #725113",
"1$	c #3E2B06",
"2$	c #1F1502",
"3$	c #1B1202",
"4$	c #201602",
"5$	c #2C1F04",
"6$	c #4B370C",
"7$	c #926F21",
"8$	c #D1A235",
"9$	c #E8B33C",
"0$	c #E2B03E",
"a$	c #DEAF3E",
"b$	c #DCAF3E",
"c$	c #DBAE3F",
"d$	c #E1B240",
"e$	c #E6B641",
"f$	c #ECB840",
"                          . + @ # $ % &                         ",
"                    * = - ; > , ' ) ! ~ { ] ^                   ",
"                / ( _ : < < < < < < < < < [ } | 1               ",
"            2 3 4 5 < < < < < < < < < < < < < 6 7 8             ",
"          9 0 a < < < < < < < < < < < < < < < < < b c           ",
"        d e f < < < < < < < < < < < < < < < < < < < g h         ",
"        i j < < < < < < k l < < < < < m n < < < < < < o p       ",
"      q r < < < < < < s t u v < < < w x y < < < < < < < z A     ",
"    q B < < < < < < < C D E F G < H I J K : < < < < < < L M     ",
"    N O < < < P Q R S T U V W X Y Z `  ...+.@.#.$.%.< < < &.*.  ",
"  =.-.;.>.,.'.).!.~.{.].^./.(._.:.<.[.}.|.1.2.3.4.5.6.7.8.9.0.  ",
"  a.b.c.d.e.f.g.h.i.j.k.l.m.n.o.p.q.r.s.t.u.v.w.x.y.z.A.B.C.D.  ",
"  E.F.G.H.I.J.K.L.M.N.O.P.Q.R.S.T.U.V.W.X.Y.Z.`. +.+++@+#+$+%+&+",
"  *+=+-+;+>+,+'+)+!+~+{+]+^+/+(+_+:+<+[+}+|+1+2+3+4+5+6+7+8+9+0+",
"a+b+< < c+d+e+f+g+h+i+j+k+l+m+n+o+p+q+r+s+t+u+v+w+x+y+z+< < A+B+",
"C+D+< < E+F+G+H+I+J+K+L+M+N+O+P+Q+R+S+T+U+V+W+X+Y+Z+`+ @< < < .@",
"+@@@< < #@$@%@&@*@=@-@;@>@,@'@)@!@~@{@]@^@/@(@_@:@<@[@}@< < < |@",
"1@2@< < < < < 3@4@5@6@7@8@9@0@a@b@c@d@e@f@g@h@i@j@k@< < < < : l@",
"  m@n@< < < s o@p@q@r@s@t@u@v@w@x@y@z@A@B@C@D@E@F@G@< < < < H@I@",
"  J@K@< < < < L@M@N@< < O@P@Q@R@S@T@U@V@W@< X@Y@Z@`@< < < <  #.#",
"  +#@#< < < < < ##< < C $#%#&#*#=#-#;#>#,#< < < X@< < < < < '#  ",
"  )#!#< < < < < < < < s ~#{#]#^#/#(#_#:#<#< < < < < < < < < [#  ",
"    }#|#< < < < < < < < 1#2#3#4#5#6#7#8#9#< < < < < < < < 0#a#  ",
"    b#c#< < < < < < < C d#e#f#g#h#i#j#k#l#< < < < < < < m#n#    ",
"      o#p#< < < < < < s q#r#s#t#u#v#w#x#y#< < < < < < < z#A#    ",
"        B#C#< < < < < < D#E#F#G#H#I#J#K#L#< < < < < < M#N#      ",
"        O#P#>+< < < < < Q#R#S#T#U#V#W#X#< < < < < < Y#Z#        ",
"          `# $.$< < < < < Q#+$@$#$$$%$< < < < < < &$*$          ",
"            =$-$;$>$< < < < Q#,$'$)$< < < < < !$~${$            ",
"                ]$^$/$##< < < < P < < < < ($_$:$<$              ",
"                    [$}$|$1$.$2$3$4$5$6$7$8$9$                  ",
"                          0$a$b$c$d$e$f$                        "};
