/* XPM */
static char * aidp32_xpm[] = {
"32 32 221 2",
"  	c None",
". 	c #941484",
"+ 	c #4D0E48",
"@ 	c #7B136F",
"# 	c #7E1370",
"$ 	c #520D4C",
"% 	c #4A0D45",
"& 	c #7E1372",
"* 	c #711166",
"= 	c #650F5E",
"- 	c #590F54",
"; 	c #560F4F",
"> 	c #7B1170",
", 	c #801475",
"' 	c #6D1364",
") 	c #5D0E56",
"! 	c #79126B",
"~ 	c #460A43",
"{ 	c #500E4D",
"] 	c #520F4F",
"^ 	c #400C3E",
"/ 	c #3E0B3D",
"( 	c #2B092A",
"_ 	c #220823",
": 	c #1F0820",
"< 	c #210721",
"[ 	c #250824",
"} 	c #5C0D5B",
"| 	c #841280",
"1 	c #9A1693",
"2 	c #8F1587",
"3 	c #9D1793",
"4 	c #9F1692",
"5 	c #9E1892",
"6 	c #88157C",
"7 	c #871579",
"8 	c #911480",
"9 	c #8E157D",
"0 	c #6F1264",
"a 	c #6E1263",
"b 	c #63105B",
"c 	c #590F53",
"d 	c #390B36",
"e 	c #320A30",
"f 	c #2F092D",
"g 	c #2B092B",
"h 	c #290928",
"i 	c #2D092C",
"j 	c #2B0A29",
"k 	c #200820",
"l 	c #1C071B",
"m 	c #180716",
"n 	c #4F0B4E",
"o 	c #610F5F",
"p 	c #5A0D59",
"q 	c #791075",
"r 	c #94158C",
"s 	c #81147D",
"t 	c #6F1065",
"u 	c #6F1164",
"v 	c #6B1162",
"w 	c #63105D",
"x 	c #5E1059",
"y 	c #540F50",
"z 	c #420C3F",
"A 	c #370B36",
"B 	c #240824",
"C 	c #200821",
"D 	c #1C081B",
"E 	c #170716",
"F 	c #0D040D",
"G 	c #0D050C",
"H 	c #621060",
"I 	c #9C1691",
"J 	c #981789",
"K 	c #7C136E",
"L 	c #841475",
"M 	c #741369",
"N 	c #6B1161",
"O 	c #64105C",
"P 	c #550F50",
"Q 	c #310A30",
"R 	c #2D092B",
"S 	c #120611",
"T 	c #8F1689",
"U 	c #99158F",
"V 	c #9F1993",
"W 	c #9B178E",
"X 	c #861678",
"Y 	c #7E126E",
"Z 	c #79136C",
"` 	c #6C1162",
" .	c #67105F",
"..	c #420C3E",
"+.	c #380A36",
"@.	c #340A31",
"#.	c #30092D",
"$.	c #360838",
"%.	c #520C51",
"&.	c #600E5D",
"*.	c #781072",
"=.	c #921588",
"-.	c #7E1773",
";.	c #731068",
">.	c #7E116F",
",.	c #8C157D",
"'.	c #7C1471",
").	c #681161",
"!.	c #550E50",
"~.	c #4E0E48",
"{.	c #370A36",
"].	c #300930",
"^.	c #280827",
"/.	c #4A0C49",
"(.	c #590E58",
"_.	c #5A0E58",
":.	c #6F116B",
"<.	c #7D1371",
"[.	c #79136D",
"}.	c #78126D",
"|.	c #881479",
"1.	c #7D146F",
"2.	c #640F5A",
"3.	c #6C0F61",
"4.	c #66115E",
"5.	c #2C092A",
"6.	c #290827",
"7.	c #240823",
"8.	c #1F0721",
"9.	c #73136D",
"0.	c #72106A",
"a.	c #721267",
"b.	c #751269",
"c.	c #7A136D",
"d.	c #550E51",
"e.	c #530D4E",
"f.	c #690F60",
"g.	c #510D4C",
"h.	c #4D0E49",
"i.	c #89157F",
"j.	c #821579",
"k.	c #8E1483",
"l.	c #89157B",
"m.	c #87137A",
"n.	c #931683",
"o.	c #821475",
"p.	c #711368",
"q.	c #610F5A",
"r.	c #620F5B",
"s.	c #5E0E58",
"t.	c #691160",
"u.	c #570F52",
"v.	c #560E51",
"w.	c #4E0E49",
"x.	c #410D3E",
"y.	c #330C33",
"z.	c #A51697",
"A.	c #9E1A90",
"B.	c #98168A",
"C.	c #921582",
"D.	c #87157A",
"E.	c #65115F",
"F.	c #5C0F56",
"G.	c #5F0F58",
"H.	c #580E52",
"I.	c #4B0E47",
"J.	c #290A29",
"K.	c #240925",
"L.	c #AF169D",
"M.	c #A61C97",
"N.	c #7C1373",
"O.	c #671261",
"P.	c #3D0B3C",
"Q.	c #300A2E",
"R.	c #2D0A2D",
"S.	c #6B1365",
"T.	c #60115B",
"U.	c #3D0C3D",
"V.	c #7F1373",
"W.	c #6E1164",
"X.	c #701166",
"Y.	c #5C0F55",
"Z.	c #490D46",
"`.	c #420B3E",
" +	c #731269",
".+	c #691161",
"++	c #5B0E57",
"@+	c #4F0E4B",
"#+	c #450B43",
"$+	c #3E0B3C",
"%+	c #6C1264",
"&+	c #681160",
"*+	c #590F56",
"=+	c #450C43",
"-+	c #440B41",
";+	c #400A3C",
">+	c #5C0F57",
",+	c #4F0E4D",
"'+	c #460D43",
")+	c #400C3D",
"!+	c #3C0B39",
"~+	c #78136E",
"{+	c #540F51",
"]+	c #420C43",
"^+	c #3A0B39",
"/+	c #2F092E",
"(+	c #270828",
"_+	c #630F5D",
":+	c #5F0F5A",
"<+	c #4B0E4A",
"[+	c #4C0D49",
"}+	c #3A0C3B",
"|+	c #330A34",
"1+	c #6F1166",
"2+	c #61105B",
"3+	c #450D42",
"4+	c #3D0B3D",
"5+	c #3A0B3A",
"6+	c #380B38",
"7+	c #490B47",
"8+	c #510C4C",
"                                                                ",
"                                                                ",
"                                                                ",
"                                                                ",
"                        .             +                         ",
"                        @ #         $ %                         ",
"                        & * =     - ;                           ",
"              > , ' ) !   ~ { ] ^ /     ( _ : < [               ",
"    } | 1 2 3 4 5 6 7 8 9   0 a b c   d e f g h i j [ k l m     ",
"n o p q r s             t u v w x y z A             B C D E F G ",
"  H               I J     K L M N O P     Q R               S   ",
"              T U V W X     Y Z `  .    ..+.@.#.f               ",
"        $.%.&.*.=.    -.;.  >.,.'.).  !.~.    {.].^.[ C         ",
"      /.(._.:.          <.[.}.|.1.2.3.4.          5.6.7.8.      ",
"                  9.0.    a.b.c.d.e.f.    g.h.                  ",
"              i.j.k.l.m.n.o.L p.q.r.s.t.u.v.w.x.y.              ",
"            z.A.B.    m.C.D.  E.F.  G.H.I.    Q J.K.            ",
"            L.M.        N.O.        / P.        Q.R.            ",
"                          S.T.    U.P.                          ",
"                        V.  W.X.Y.Z.  `.                        ",
"                         +.+  ++@+  #+$+                        ",
"                        %+&+*+    =+-+;+                        ",
"                          E.>+,+'+)+!+                          ",
"                        ~+  {+]+^+/+  (+                        ",
"                        _+:+  <+[+  }+|+                        ",
"                          1+2+    Z.3+                          ",
"                            @+4+5+6+                            ",
"                              7+8+                              ",
"                                                                ",
"                                                                ",
"                                                                ",
"                                                                "};
